<?xml version="1.0" encoding="UTF-8" standalone="no"?>
<!-- Generator: Adobe Illustrator 18.1.1, SVG Export Plug-In . SVG Version: 6.00 Build 0)  -->

<svg
   xmlns:dc="http://purl.org/dc/elements/1.1/"
   xmlns:cc="http://creativecommons.org/ns#"
   xmlns:rdf="http://www.w3.org/1999/02/22-rdf-syntax-ns#"
   xmlns:svg="http://www.w3.org/2000/svg"
   xmlns="http://www.w3.org/2000/svg"
   xmlns:sodipodi="http://sodipodi.sourceforge.net/DTD/sodipodi-0.dtd"
   xmlns:inkscape="http://www.inkscape.org/namespaces/inkscape"
   version="1.1"
   id="Capa_1"
   x="0px"
   y="0px"
   viewBox="0 0 20 32"
   xml:space="preserve"
   sodipodi:docname="location.svg"
   width="20"
   height="32"
   inkscape:version="0.92.4 (5da689c313, 2019-01-14)"><metadata
   id="metadata3810"><rdf:RDF><cc:Work
       rdf:about=""><dc:format>image/svg+xml</dc:format><dc:type
         rdf:resource="http://purl.org/dc/dcmitype/StillImage" /><dc:title></dc:title></cc:Work></rdf:RDF></metadata><defs
   id="defs3808" /><sodipodi:namedview
   pagecolor="#ffffff"
   bordercolor="#666666"
   borderopacity="1"
   objecttolerance="10"
   gridtolerance="10"
   guidetolerance="10"
   inkscape:pageopacity="0"
   inkscape:pageshadow="2"
   inkscape:window-width="1920"
   inkscape:window-height="1017"
   id="namedview3806"
   showgrid="false"
   inkscape:zoom="14.75"
   inkscape:cx="38.094812"
   inkscape:cy="12.526098"
   inkscape:window-x="-8"
   inkscape:window-y="1072"
   inkscape:window-maximized="1"
   inkscape:current-layer="location" />
<g
   id="g3773"
   style="fill:#ff0000">
	<g
   id="location"
   style="fill:#ff0000">
		
		<path
   style="fill:#ff0000;stroke-width:0.9144243"
   d="M 10.033061,0 C 4.4992758,0 -0.00100117,5.316 -0.00100117,12.001 c 0,7 5.01786697,14.161 8.67611897,19.194 0.01338,0.02 0.600371,0.805 1.3261692,0.805 0.0017,0 0.06104,0 0.06438,0 0.724962,0 1.312791,-0.785 1.326169,-0.805 3.659925,-5.033 8.676956,-12.193 8.676956,-19.194 C 20.068797,5.316 15.567684,0 10.033061,0 Z m 0.09783,29.883 c -0.01756,0.02 -0.06857,0.064 -0.112883,0.098 -0.0084,-0.027 -0.07024,-0.086 -0.107866,-0.133 C 6.8455738,25.631 1.6713428,18.514 1.6713428,12.001 1.6713428,6.487 5.4232458,2 10.033061,2 c 4.612325,0 8.363392,4.487 8.363392,10.002 0,6.512 -5.174231,13.629 -8.26556,17.881 z"
   id="path3770"
   inkscape:connector-curvature="0" />
	<path
   style="fill:#ff0000;fill-opacity:1;stroke-width:0.06779661"
   d="m 9.2992778,16.661416 c -1.830014,-0.280934 -3.419516,-1.649436 -3.996247,-3.440622 -0.230568,-0.716088 -0.282322,-1.759674 -0.123607,-2.492466 0.148539,-0.685809 0.613472,-1.6477058 1.036355,-2.1441059 0.673036,-0.7900409 1.603681,-1.3836639 2.594634,-1.6550184 0.595853,-0.1631634 1.8366892,-0.1659897 2.4406792,-0.00556 2.224842,0.5909569 3.728814,2.5383628 3.728814,4.8282233 0,1.921892 -1.081173,3.643515 -2.810451,4.475264 -0.839186,0.403632 -1.962582,0.573612 -2.8701772,0.434285 z"
   id="path3866"
   inkscape:connector-curvature="0" /></g>
</g>
<g
   id="g3775">
</g>
<g
   id="g3777">
</g>
<g
   id="g3779">
</g>
<g
   id="g3781">
</g>
<g
   id="g3783">
</g>
<g
   id="g3785">
</g>
<g
   id="g3787">
</g>
<g
   id="g3789">
</g>
<g
   id="g3791">
</g>
<g
   id="g3793">
</g>
<g
   id="g3795">
</g>
<g
   id="g3797">
</g>
<g
   id="g3799">
</g>
<g
   id="g3801">
</g>
<g
   id="g3803">
</g>
</svg>